<svg width="556" height="270" viewBox="0 0 556 270" fill="none" xmlns="http://www.w3.org/2000/svg">
<path d="M48.7516 148.66C56.1649 148.66 62.6721 149.936 68.2732 152.49C73.8744 155.043 78.6518 158.832 82.6056 163.857L73.0919 174.853C69.7147 170.57 66.0081 167.44 61.972 165.463C58.0182 163.404 53.4055 162.374 48.1338 162.374C42.8622 162.374 39.032 163.363 36.6433 165.34C34.2545 167.234 33.0602 169.54 33.0602 172.259C33.0602 174.483 33.8839 176.377 35.5313 177.942C37.261 179.425 40.2675 180.66 44.5508 181.649L59.748 185.108C67.7378 186.92 73.5037 189.639 77.0456 193.263C80.5875 196.805 82.3585 201.418 82.3585 207.101C82.3585 212.455 80.9582 217.068 78.1576 220.939C75.357 224.728 71.4445 227.652 66.4199 229.712C61.3954 231.688 55.6295 232.677 49.1223 232.677C40.6382 232.677 33.1837 231.194 26.7589 228.229C20.334 225.264 15.2683 221.433 11.5617 216.738L21.1989 205.248C23.9995 209.201 27.8297 212.496 32.6895 215.132C37.6317 217.686 43.1093 218.962 49.1223 218.962C54.1468 218.962 58.0182 218.139 60.7364 216.491C63.4546 214.761 64.8137 212.332 64.8137 209.201C64.8137 207.142 64.0724 205.33 62.5897 203.765C61.1894 202.2 58.5536 201.006 54.6822 200.182L38.1259 196.475C30.8774 194.91 25.2762 192.357 21.3225 188.815C17.3687 185.273 15.3919 180.454 15.3919 174.359C15.3919 169.499 16.7098 165.134 19.3456 161.262C21.9814 157.391 25.7704 154.343 30.7126 152.119C35.7372 149.813 41.7502 148.66 48.7516 148.66ZM121.364 192.027C121.364 188.485 120.334 185.726 118.275 183.749C116.298 181.772 113.663 180.784 110.368 180.784C107.32 180.784 104.643 181.566 102.337 183.131C100.03 184.696 98.3417 187.291 97.2709 190.915L82.815 186.467C84.2153 181.031 87.263 176.665 91.9581 173.371C96.7355 170.076 103.119 168.428 111.109 168.428C119.181 168.428 125.689 170.364 130.631 174.236C135.655 178.025 138.168 183.708 138.168 191.286V216.368C138.168 219.498 139.65 221.063 142.615 221.063C144.016 221.063 145.334 220.857 146.569 220.445L145.581 230.947C143.439 232.018 140.762 232.553 137.55 232.553C134.008 232.553 130.919 231.812 128.283 230.329C125.73 228.847 124 226.623 123.094 223.657C121.117 226.623 118.275 228.888 114.569 230.453C110.944 231.936 107.196 232.677 103.325 232.677C97.065 232.677 92.0816 231.277 88.375 228.476C84.7507 225.593 82.9386 221.433 82.9386 215.997C82.9386 211.384 84.4213 207.636 87.3866 204.754C90.3519 201.788 94.5939 199.77 100.113 198.699L121.364 194.375V192.027ZM99.8656 214.391C99.8656 216.45 100.607 218.015 102.09 219.086C103.655 220.157 105.508 220.692 107.65 220.692C110.038 220.692 112.262 220.321 114.321 219.58C116.381 218.839 118.069 217.603 119.387 215.873C120.705 214.061 121.364 211.673 121.364 208.707V204.877L108.391 207.472C105.59 208.048 103.449 208.831 101.966 209.819C100.566 210.725 99.8656 212.249 99.8656 214.391ZM201.424 169.664L176.466 235.272C174.489 240.873 172.265 245.321 169.794 248.615C167.405 251.993 164.604 254.381 161.392 255.782C158.262 257.264 154.514 258.006 150.148 258.006C146.936 258.006 143.971 257.635 141.253 256.894C138.617 256.152 136.31 255.123 134.333 253.805L137.917 241.573C140.8 243.879 144.424 245.032 148.789 245.032C151.178 245.032 153.196 244.538 154.844 243.55C156.491 242.561 157.891 240.584 159.044 237.619L161.145 232.306L154.349 216.244L135.445 169.664H154.226L165.963 206.73L169.176 219.086L173.006 205.989L184.25 169.664H201.424ZM222.415 232.677C218.297 232.677 214.59 231.936 211.295 230.453C208.001 228.97 205.365 226.623 203.388 223.41C201.493 220.198 200.546 215.956 200.546 210.684V169.664H217.473V206.607C217.473 211.384 218.462 214.72 220.439 216.615C222.415 218.427 225.257 219.333 228.964 219.333C232.506 219.333 235.636 218.056 238.354 215.503C241.154 212.867 242.555 208.666 242.555 202.9V169.664H259.482V231.441H244.408L243.79 220.692C241.731 224.728 238.889 227.735 235.265 229.712C231.641 231.688 227.358 232.677 222.415 232.677ZM267.41 231.441V169.664H282.113L283.225 181.772C284.79 177.572 287.137 174.318 290.267 172.012C293.48 169.623 297.516 168.428 302.376 168.428C305.258 168.428 307.482 168.881 309.047 169.788L307.071 183.996C306.247 183.749 305.217 183.543 303.982 183.379C302.829 183.131 301.305 183.008 299.41 183.008C296.857 183.008 294.427 183.626 292.12 184.861C289.896 186.014 288.043 187.827 286.561 190.298C285.078 192.686 284.337 195.734 284.337 199.441V231.441H267.41ZM327.706 149.895V183.379H363.661V149.895H380.711V231.441H363.661V197.093H327.706V231.441H310.656V149.895H327.706ZM411.275 232.677C407.157 232.677 403.45 231.936 400.156 230.453C396.861 228.97 394.225 226.623 392.248 223.41C390.354 220.198 389.406 215.956 389.406 210.684V169.664H406.333V206.607C406.333 211.384 407.322 214.72 409.299 216.615C411.275 218.427 414.117 219.333 417.824 219.333C421.366 219.333 424.496 218.056 427.214 215.503C430.015 212.867 431.415 208.666 431.415 202.9V169.664H448.342V231.441H433.268L432.65 220.692C430.591 224.728 427.749 227.735 424.125 229.712C420.501 231.688 416.218 232.677 411.275 232.677ZM492.595 232.677C487.652 232.677 483.369 231.4 479.745 228.847C476.203 226.211 473.567 222.793 471.837 218.592L471.22 231.441H456.27V142.606H473.197V180.166C475.009 176.707 477.562 173.906 480.857 171.764C484.234 169.54 488.311 168.428 493.089 168.428C498.031 168.428 502.438 169.705 506.309 172.259C510.263 174.812 513.352 178.519 515.576 183.379C517.882 188.156 519.035 193.922 519.035 200.676C519.035 207.431 517.882 213.196 515.576 217.974C513.352 222.669 510.222 226.293 506.186 228.847C502.232 231.4 497.702 232.677 492.595 232.677ZM487.529 219.704C492.142 219.704 495.725 218.097 498.278 214.885C500.832 211.59 502.108 206.813 502.108 200.553C502.108 194.293 500.832 189.556 498.278 186.344C495.725 183.049 492.183 181.402 487.652 181.402C483.287 181.402 479.786 183.173 477.15 186.715C474.514 190.174 473.197 194.828 473.197 200.676C473.197 206.689 474.514 211.384 477.15 214.761C479.786 218.056 483.246 219.704 487.529 219.704ZM530.322 212.537C533.617 212.537 536.212 213.444 538.106 215.256C540.083 217.068 541.071 219.498 541.071 222.545C541.071 225.675 540.083 228.147 538.106 229.959C536.212 231.688 533.617 232.553 530.322 232.553C526.945 232.553 524.309 231.688 522.415 229.959C520.52 228.147 519.573 225.675 519.573 222.545C519.573 219.498 520.52 217.068 522.415 215.256C524.309 213.444 526.945 212.537 530.322 212.537Z" fill="#374137"/>
<path d="M306.056 68.2545C306.056 93.2003 295.228 115.614 278.004 131.058C260.78 115.614 249.952 93.2003 249.952 68.2545C249.952 43.3087 260.78 20.8948 278.004 5.45128C295.228 20.8948 306.056 43.3087 306.056 68.2545ZM346.401 68.2548C346.401 79.5421 341.739 89.7377 334.225 97.0253C326.711 89.7377 322.048 79.5421 322.048 68.2548C322.048 56.9676 326.711 46.772 334.225 39.4844C341.739 46.772 346.401 56.9676 346.401 68.2548ZM233.952 68.2548C233.952 79.5421 229.289 89.7377 221.775 97.0253C214.261 89.7377 209.599 79.5421 209.599 68.2548C209.599 56.9676 214.261 46.772 221.775 39.4844C229.289 46.772 233.952 56.9676 233.952 68.2548Z" stroke="#367874" stroke-width="6.86415"/>
</svg>
