<svg width="144" height="136" viewBox="0 0 144 136" fill="none" xmlns="http://www.w3.org/2000/svg">
<path d="M100.056 68.2545C100.056 93.2003 89.2275 115.614 72.0038 131.058C54.78 115.614 43.9517 93.2003 43.9517 68.2545C43.9517 43.3087 54.78 20.8948 72.0038 5.45128C89.2275 20.8948 100.056 43.3087 100.056 68.2545ZM140.401 68.2548C140.401 79.5421 135.739 89.7377 128.225 97.0253C120.711 89.7377 116.048 79.5421 116.048 68.2548C116.048 56.9676 120.711 46.772 128.225 39.4844C135.739 46.772 140.401 56.9676 140.401 68.2548ZM27.9517 68.2548C27.9517 79.5421 23.2891 89.7377 15.7752 97.0253C8.26139 89.7377 3.59873 79.5421 3.59873 68.2548C3.59873 56.9676 8.26139 46.772 15.7752 39.4844C23.2891 46.772 27.9517 56.9676 27.9517 68.2548Z" stroke="#367874" stroke-width="6.86415"/>
</svg>
